<svg xmlns="http://www.w3.org/2000/svg" width="18" height="18" viewBox="0 0 18 18"><defs><style>.a,.b{fill:none;}.b{stroke-linecap:round;}.c,.d{stroke:none;}.d{fill:#84a584;}</style></defs><g transform="translate(-1302 -369)"><rect class="a" width="18" height="18" rx="2" transform="translate(1302 369)"/><g class="b" transform="translate(1304 373)"><path class="c" d="M10,10H3a3,3,0,0,1-.927-5.854,5,5,0,0,1,9.041-1.989A4,4,0,0,1,10,10Z"/><path class="d" d="M 9.999899864196777 7.999899864196777 C 11.1029806137085 7.999899864196777 12.00040054321289 7.102880001068115 12.00040054321289 6.00029993057251 C 12.00040054321289 5.114150047302246 11.4071798324585 4.323729991912842 10.55780029296875 4.078139781951904 L 9.874140739440918 3.880470037460327 L 9.469010353088379 3.295369863510132 C 8.907390594482422 2.484249830245972 7.984460353851318 1.99999988079071 7.000200271606445 1.99999988079071 C 5.53510046005249 1.99999988079071 4.291690349578857 3.045159816741943 4.043630123138428 4.48514986038208 L 3.83866024017334 5.674999713897705 L 2.69031023979187 6.04787015914917 C 2.346710205078125 6.159430027008057 2.000000238418579 6.497169971466064 2.000000238418579 7.000199794769287 C 2.000000238418579 7.551439762115479 2.448460340499878 7.999899864196777 2.999700307846069 7.999899864196777 L 7.000200271606445 7.999899864196777 L 9.999899864196777 7.999899864196777 M 9.999899864196777 9.999899864196777 L 7.000200271606445 9.999899864196777 L 2.999700307846069 9.999899864196777 C 1.342800259590149 9.999899864196777 2.716064386731887e-07 8.657099723815918 2.716064386731887e-07 7.000199794769287 C 2.716064386731887e-07 5.666810035705566 0.869540274143219 4.536280155181885 2.072660207748413 4.1456298828125 C 2.478280305862427 1.790969967842102 4.53039026260376 -6.790160966829717e-08 7.000200271606445 -6.790160966829717e-08 C 8.705220222473145 -6.790160966829717e-08 10.21094989776611 0.8536099195480347 11.11332035064697 2.156839847564697 C 12.78106021881104 2.639050006866455 14.00040054321289 4.177169799804688 14.00040054321289 6.00029993057251 C 14.00040054321289 8.20889949798584 12.20940017700195 9.999899864196777 9.999899864196777 9.999899864196777 Z"/></g></g></svg>