<svg xmlns="http://www.w3.org/2000/svg" width="24" height="24" viewBox="0 0 24 24"><defs><style>.a,.b,.e{fill:#fff;}.c,.f{fill:none;}.c{stroke:#fff;stroke-width:5px;}.d,.e{stroke:none;}</style></defs><g transform="translate(-1740 -368)"><g class="a" transform="translate(1740 368)"><path class="d" d="M 11.99970054626465 23.50030136108398 C 8.928250312805176 23.50030136108398 6.040490627288818 22.30401039123535 3.868390798568726 20.13181114196777 C 1.696250677108765 17.95954132080078 0.5000006556510925 15.07150077819824 0.5000006556510925 11.99970054626465 C 0.5000006556510925 8.928290367126465 1.696250677108765 6.04054069519043 3.868380784988403 3.868380784988403 C 6.04054069519043 1.696250677108765 8.928290367126465 0.5000006556510925 11.99970054626465 0.5000006556510925 C 15.07150077819824 0.5000006556510925 17.95954132080078 1.696250677108765 20.13181114196777 3.868390798568726 C 22.30401039123535 6.040490627288818 23.50030136108398 8.928250312805176 23.50030136108398 11.99970054626465 C 23.50030136108398 15.0715503692627 22.30401039123535 17.95958137512207 20.13180160522461 20.13180160522461 C 17.95958137512207 22.30401039123535 15.0715503692627 23.50030136108398 11.99970054626465 23.50030136108398 Z M 11.99970054626465 2.166700601577759 C 6.577770709991455 2.166700601577759 2.166700601577759 6.577770709991455 2.166700601577759 11.99970054626465 C 2.166700601577759 17.4221305847168 6.577770709991455 21.8336009979248 11.99970054626465 21.8336009979248 C 17.4221305847168 21.8336009979248 21.8336009979248 17.4221305847168 21.8336009979248 11.99970054626465 C 21.8336009979248 6.577770709991455 17.4221305847168 2.166700601577759 11.99970054626465 2.166700601577759 Z"/><path class="e" d="M 11.99970054626465 23.00030136108398 C 14.93799114227295 23.00030136108398 17.70046997070313 21.85601997375488 19.77824020385742 19.77824020385742 C 21.85601997375488 17.70046997070313 23.00030136108398 14.93799114227295 23.00030136108398 11.99970054626465 C 23.00030136108398 9.061810493469238 21.85601997375488 6.299620628356934 19.77826118469238 4.221960544586182 C 17.70042991638184 2.144250631332397 14.93795108795166 1.000000715255737 11.99970054626465 1.000000715255737 C 9.061850547790527 1.000000715255737 6.2996506690979 2.144240617752075 4.221940517425537 4.221930503845215 C 2.144240617752075 6.2996506690979 1.000000715255737 9.061850547790527 1.000000715255737 11.99970054626465 C 1.000000715255737 14.93795108795166 2.144250631332397 17.70042991638184 4.221950531005859 19.77826118469238 C 6.299620628356934 21.85601997375488 9.061810493469238 23.00030136108398 11.99970054626465 23.00030136108398 M 11.99970054626465 1.666700720787048 C 17.69783020019531 1.666700720787048 22.3336009979248 6.302060604095459 22.3336009979248 11.99970054626465 C 22.3336009979248 17.69783020019531 17.69783020019531 22.3336009979248 11.99970054626465 22.3336009979248 C 6.302060604095459 22.3336009979248 1.666700720787048 17.69783020019531 1.666700720787048 11.99970054626465 C 1.666700720787048 6.302060604095459 6.302060604095459 1.666700720787048 11.99970054626465 1.666700720787048 M 11.99970054626465 24.00030136108398 C 8.79469108581543 24.00030136108398 5.781370639801025 22.75200080871582 3.514830589294434 20.4853515625 C 1.248260736465454 18.21865081787109 6.805419729971618e-07 15.2050609588623 6.805419729971618e-07 11.99970054626465 C 6.805419729971618e-07 8.794731140136719 1.248260736465454 5.781420707702637 3.514830589294434 3.514830589294434 C 5.781420707702637 1.248260736465454 8.794731140136719 6.805419729971618e-07 11.99970054626465 6.805419729971618e-07 C 15.2050609588623 6.805419729971618e-07 18.21865081787109 1.248260736465454 20.4853515625 3.514830589294434 C 22.75200080871582 5.781370639801025 24.00030136108398 8.79469108581543 24.00030136108398 11.99970054626465 C 24.00030136108398 15.20510101318359 22.75200080871582 18.21870040893555 20.4853515625 20.4853515625 C 18.21870040893555 22.75200080871582 15.20510101318359 24.00030136108398 11.99970054626465 24.00030136108398 Z M 11.99970054626465 2.666700601577759 C 6.853470802307129 2.666700601577759 2.666700601577759 6.853470802307129 2.666700601577759 11.99970054626465 C 2.666700601577759 17.14643096923828 6.853470802307129 21.3336009979248 11.99970054626465 21.3336009979248 C 17.14643096923828 21.3336009979248 21.3336009979248 17.14643096923828 21.3336009979248 11.99970054626465 C 21.3336009979248 6.853470802307129 17.14643096923828 2.666700601577759 11.99970054626465 2.666700601577759 Z"/></g><path class="b" d="M9,18a9,9,0,1,1,9-9A9.01,9.01,0,0,1,9,18ZM5.417,8.379a1.8,1.8,0,0,0-1.273,3.072L6.69,14a1.771,1.771,0,0,0,.276.227c.016.02.032.04.049.058a1.48,1.48,0,0,0,1.117.536,1.375,1.375,0,0,0,1.046-.492L14.46,8.231a1.944,1.944,0,0,0-.05-2.48,1.482,1.482,0,0,0-1.118-.536,1.371,1.371,0,0,0-1.044.493L8.182,10.4,6.69,8.906A1.788,1.788,0,0,0,5.417,8.379Z" transform="translate(1743 370)"/><g class="c" transform="translate(1740 368)"><circle class="d" cx="12" cy="12" r="12"/><circle class="f" cx="12" cy="12" r="9.5"/></g></g></svg>