<svg xmlns="http://www.w3.org/2000/svg" width="24" height="24" viewBox="0 0 24 24"><defs><style>.a{fill:#fff;}</style></defs><g transform="translate(-1680 -369)"><path class="a" d="M12,24A12,12,0,0,1,3.515,3.515,12,12,0,0,1,20.486,20.486,11.925,11.925,0,0,1,12,24ZM8,4.145A2.006,2.006,0,0,0,6,6.123V17.877a2,2,0,0,0,1.977,1.976h.057a1.984,1.984,0,0,0,.973-.275l10.031-5.851.03-.018.006,0,.023-.014.007,0,.022-.014.011-.007.008-.005.008-.006.02-.014.007,0,.023-.017a2,2,0,0,0,.421-.408l.006-.008,0,0,0,0,.006-.008A1.981,1.981,0,0,0,20.031,12a2.014,2.014,0,0,0-.244-.962,1.961,1.961,0,0,0-.634-.693l0,0-.023-.015-.008-.005,0,0-.016-.01-.019-.012-.01-.006-.03-.018L9.008,4.421A1.97,1.97,0,0,0,8,4.145Z" transform="translate(1680 369)"/><path class="a" d="M4.667,0,9.333,8H0Z" transform="translate(1696.667 376.333) rotate(90)"/></g></svg>